<svg width="496" height="496" viewBox="0 0 496 496" fill="none" xmlns="http://www.w3.org/2000/svg">
<g clip-path="url(#clip0_1_3)">
<rect width="496" height="496" fill="#8ACE00"/>
<g filter="url(#filter0_f_1_3)">
<path d="M406.6 223.878C401.4 223.878 398.2 222.619 393.7 220.1C322.5 178.928 195.2 169.047 112.8 191.328C109.2 192.297 104.7 193.847 99.9 193.847C86.7 193.847 76.6 183.869 76.6 170.984C76.6 157.809 85 150.35 94 147.831C129.2 137.853 168.6 133.106 211.5 133.106C284.5 133.106 361 147.831 416.9 179.412C424.7 183.772 429.8 189.778 429.8 201.306C429.8 214.481 418.8 223.878 406.6 223.878ZM375.6 297.697C370.4 297.697 366.9 295.469 363.3 293.628C300.8 257.784 207.6 243.35 124.7 265.147C119.9 266.406 117.3 267.666 112.8 267.666C102.1 267.666 93.4 259.237 93.4 248.872C93.4 238.506 98.6 231.628 108.9 228.819C136.7 221.262 165.1 215.644 206.7 215.644C271.6 215.644 334.3 231.241 383.7 259.722C391.8 264.372 395 270.378 395 278.806C394.9 289.269 386.5 297.697 375.6 297.697ZM348.7 361.247C344.5 361.247 341.9 359.987 338 357.759C275.6 321.334 203 319.784 131.3 334.025C127.4 334.994 122.3 336.544 119.4 336.544C109.7 336.544 103.6 329.084 103.6 321.238C103.6 311.259 109.7 306.512 117.2 304.962C199.1 287.428 282.8 288.978 354.2 330.344C360.3 334.122 363.9 337.513 363.9 346.328C363.9 355.144 356.8 361.247 348.7 361.247Z" fill="black"/>
</g>
</g>
<defs>
<filter id="filter0_f_1_3" x="68.6" y="125.106" width="369.2" height="244.141" filterUnits="userSpaceOnUse" color-interpolation-filters="sRGB">
<feFlood flood-opacity="0" result="BackgroundImageFix"/>
<feBlend mode="normal" in="SourceGraphic" in2="BackgroundImageFix" result="shape"/>
<feGaussianBlur stdDeviation="4" result="effect1_foregroundBlur_1_3"/>
</filter>
<clipPath id="clip0_1_3">
<rect width="496" height="496" fill="white"/>
</clipPath>
</defs>
</svg>
